<svg width="24" height="24" viewBox="0 0 24 24" fill="none" xmlns="http://www.w3.org/2000/svg">
<path fill-rule="evenodd" clip-rule="evenodd" d="M19 5.27832H5C4.44772 5.27832 4 5.69946 4 6.21895C4 6.73845 4.44772 7.15958 5 7.15958H19C19.5523 7.15958 20 6.73845 20 6.21895C20 5.69946 19.5523 5.27832 19 5.27832ZM19 10.9221H5C4.44772 10.9221 4 11.3432 4 11.8627C4 12.3822 4.44772 12.8034 5 12.8034H19C19.5523 12.8034 20 12.3822 20 11.8627C20 11.3432 19.5523 10.9221 19 10.9221ZM5 16.5659H19C19.5523 16.5659 20 16.987 20 17.5065C20 18.026 19.5523 18.4472 19 18.4472H5C4.44772 18.4472 4 18.026 4 17.5065C4 16.987 4.44772 16.5659 5 16.5659Z" fill="#AACE9B"/>
</svg>
