<svg width="18" height="18" viewBox="0 0 18 18" fill="none" xmlns="http://www.w3.org/2000/svg">
<path d="M17.0001 5.4737L11.0001 0.805806C10.4501 0.36923 9.73803 0.127869 9.00009 0.127869C8.26216 0.127869 7.55012 0.36923 7.00009 0.805806L1.00009 5.4737C0.682463 5.72579 0.428995 6.03505 0.256567 6.38087C0.0841385 6.72669 -0.00329256 7.10114 9.47941e-05 7.47929V15.2354C9.47941e-05 15.9415 0.316165 16.6187 0.878775 17.118C1.44138 17.6173 2.20445 17.8977 3.00009 17.8977H15.0001C15.7957 17.8977 16.5588 17.6173 17.1214 17.118C17.684 16.6187 18.0001 15.9415 18.0001 15.2354V7.47042C18.0021 7.09376 17.9139 6.72102 17.7416 6.37682C17.5692 6.03262 17.3165 5.7248 17.0001 5.4737ZM11.0001 16.1229H7.00009V11.6857C7.00009 11.4504 7.10545 11.2246 7.29299 11.0582C7.48052 10.8918 7.73488 10.7983 8.00009 10.7983H10.0001C10.2653 10.7983 10.5197 10.8918 10.7072 11.0582C10.8947 11.2246 11.0001 11.4504 11.0001 11.6857V16.1229ZM16.0001 15.2354C16.0001 15.4708 15.8947 15.6965 15.7072 15.863C15.5197 16.0294 15.2653 16.1229 15.0001 16.1229H13.0001V11.6857C13.0001 10.9796 12.684 10.3025 12.1214 9.80319C11.5588 9.30391 10.7957 9.02342 10.0001 9.02342H8.00009C7.20444 9.02342 6.44138 9.30391 5.87877 9.80319C5.31616 10.3025 5.00009 10.9796 5.00009 11.6857V16.1229H3.00009C2.73488 16.1229 2.48052 16.0294 2.29299 15.863C2.10545 15.6965 2.00009 15.4708 2.00009 15.2354V7.47042C2.00027 7.34442 2.03069 7.21989 2.08931 7.10513C2.14794 6.99037 2.23343 6.88801 2.3401 6.80484L8.34009 2.14583C8.52258 2.00356 8.75719 1.92509 9.00009 1.92509C9.243 1.92509 9.47761 2.00356 9.66009 2.14583L15.6601 6.80484C15.7668 6.88801 15.8523 6.99037 15.9109 7.10513C15.9695 7.21989 15.9999 7.34442 16.0001 7.47042V15.2354Z" fill="white"/>
</svg>
