<svg width="25" height="22" viewBox="0 0 25 22" fill="none" xmlns="http://www.w3.org/2000/svg">
<path d="M7.63978 8.03261C9.14611 11.6793 10.7056 13.1343 14.6728 14.6841L12.9535 16.8269C8.39789 14.8913 6.12884 11.6287 5.06019 9.08259L7.63978 8.03261Z" fill="#373867"/>
<path d="M8.9037 2.998C9.70918 2.99521 10.3216 3.58999 10.2667 4.2635C10.1803 5.32336 10.2723 6.08804 10.52 7.03588C10.6561 7.55654 10.3482 8.08534 9.85908 8.42594C9.19975 8.88502 8.69604 9.46997 8.29569 9.97353C7.74081 10.6715 5.83122 10.6213 5.40891 9.86099C4.54101 8.29835 3.95284 5.41943 5.22022 3.47438C5.4193 3.16886 5.82014 3.0087 6.23549 3.00726L8.9037 2.998Z" fill="#373867"/>
<path d="M21.1302 14.5615C21.2304 13.8916 20.5995 13.3105 19.7952 13.2752C18.5293 13.2197 17.6346 13.0512 16.5417 12.7311C15.9413 12.5553 15.2779 12.7478 14.8156 13.1138C14.1926 13.6072 13.4391 13.9559 12.7945 14.2284C11.901 14.6062 11.7308 16.201 12.5806 16.6438C14.3272 17.5539 17.6666 18.3894 20.123 17.5689C20.5088 17.44 20.7467 17.1257 20.7984 16.7803L21.1302 14.5615Z" fill="#373867"/>
</svg>
