<svg width="19" height="18" viewBox="0 0 19 18" fill="none" xmlns="http://www.w3.org/2000/svg">
<path d="M17.8824 0.968262H15.6471C15.3506 0.968262 15.0664 1.07929 14.8568 1.27692C14.6472 1.47455 14.5294 1.7426 14.5294 2.02209C14.5294 2.30158 14.6472 2.56962 14.8568 2.76725C15.0664 2.96488 15.3506 3.07591 15.6471 3.07591H16.7647V15.7218H15.6471C15.3506 15.7218 15.0664 15.8328 14.8568 16.0305C14.6472 16.2281 14.5294 16.4961 14.5294 16.7756C14.5294 17.0551 14.6472 17.3232 14.8568 17.5208C15.0664 17.7184 15.3506 17.8295 15.6471 17.8295H17.8824C18.1788 17.8295 18.4631 17.7184 18.6726 17.5208C18.8822 17.3232 19 17.0551 19 16.7756V2.02209C19 1.7426 18.8822 1.47455 18.6726 1.27692C18.4631 1.07929 18.1788 0.968262 17.8824 0.968262ZM9.83529 4.55127C9.65744 4.32767 9.39267 4.17985 9.09924 4.14033C8.8058 4.1008 8.50772 4.17281 8.27059 4.3405C8.03345 4.5082 7.87668 4.75785 7.83476 5.03453C7.79284 5.31121 7.86921 5.59226 8.04706 5.81586L10.0588 8.34504H1.11765C0.821229 8.34504 0.536951 8.45607 0.327351 8.6537C0.117752 8.85133 0 9.11937 0 9.39886C0 9.67835 0.117752 9.9464 0.327351 10.144C0.536951 10.3417 0.821229 10.4527 1.11765 10.4527H10.1594L8.23706 13.024C8.1513 13.1373 8.09018 13.2654 8.05723 13.4011C8.02428 13.5368 8.02016 13.6772 8.0451 13.8144C8.07004 13.9516 8.12354 14.0827 8.20253 14.2003C8.28152 14.3179 8.38442 14.4195 8.50529 14.4994C8.69529 14.6244 8.92182 14.6907 9.15353 14.6891C9.33084 14.6883 9.50542 14.6477 9.66283 14.5708C9.82025 14.4938 9.95598 14.3827 10.0588 14.2465L13.2106 10.0312C13.3505 9.85068 13.4258 9.63293 13.4258 9.4094C13.4258 9.18587 13.3505 8.96813 13.2106 8.78764L9.83529 4.55127Z" fill="white"/>
</svg>
