<svg width="143" height="33" viewBox="0 0 143 33" fill="none" xmlns="http://www.w3.org/2000/svg">
<path d="M3.65039 6.09375H7.12305L12.2363 20.709L17.3496 6.09375H20.8223L13.6309 26H10.8418L3.65039 6.09375ZM1.77734 6.09375H5.23633L5.86523 20.3398V26H1.77734V6.09375ZM19.2363 6.09375H22.709V26H18.6074V20.3398L19.2363 6.09375ZM32.8672 26.2734C31.7188 26.2734 30.6888 26.0911 29.7773 25.7266C28.8659 25.3529 28.0911 24.8379 27.4531 24.1816C26.8242 23.5254 26.3411 22.7643 26.0039 21.8984C25.6667 21.0234 25.498 20.0938 25.498 19.1094V18.5625C25.498 17.4414 25.6576 16.416 25.9766 15.4863C26.2956 14.5566 26.7513 13.75 27.3438 13.0664C27.9453 12.3828 28.6745 11.8587 29.5312 11.4941C30.388 11.1204 31.3542 10.9336 32.4297 10.9336C33.4779 10.9336 34.4076 11.1068 35.2188 11.4531C36.0299 11.7995 36.709 12.2917 37.2559 12.9297C37.8118 13.5677 38.2311 14.3333 38.5137 15.2266C38.7962 16.1107 38.9375 17.0951 38.9375 18.1797V19.8203H27.1797V17.1953H35.0684V16.8945C35.0684 16.3477 34.9681 15.86 34.7676 15.4316C34.5762 14.9941 34.2845 14.6478 33.8926 14.3926C33.5007 14.1374 32.9993 14.0098 32.3887 14.0098C31.8691 14.0098 31.4225 14.1237 31.0488 14.3516C30.6751 14.5794 30.3698 14.8984 30.1328 15.3086C29.9049 15.7188 29.7318 16.2018 29.6133 16.7578C29.5039 17.3047 29.4492 17.9062 29.4492 18.5625V19.1094C29.4492 19.7018 29.5312 20.2487 29.6953 20.75C29.8685 21.2513 30.11 21.6842 30.4199 22.0488C30.7389 22.4134 31.1217 22.696 31.5684 22.8965C32.0241 23.097 32.5391 23.1973 33.1133 23.1973C33.8242 23.1973 34.485 23.0605 35.0957 22.7871C35.7155 22.5046 36.2487 22.0807 36.6953 21.5156L38.6094 23.5938C38.2995 24.0404 37.8757 24.4688 37.3379 24.8789C36.8092 25.2891 36.1712 25.6263 35.4238 25.8906C34.6764 26.1458 33.8242 26.2734 32.8672 26.2734ZM50.5449 11.207H54.1133V25.5078C54.1133 26.8568 53.8125 28.0007 53.2109 28.9395C52.6185 29.8874 51.7891 30.6029 50.7227 31.0859C49.6562 31.5781 48.4167 31.8242 47.0039 31.8242C46.3841 31.8242 45.7279 31.7422 45.0352 31.5781C44.3516 31.4141 43.6953 31.1589 43.0664 30.8125C42.4466 30.4661 41.9271 30.0286 41.5078 29.5L43.2441 27.1758C43.6999 27.7044 44.2285 28.1146 44.8301 28.4062C45.4316 28.707 46.097 28.8574 46.8262 28.8574C47.5371 28.8574 48.1387 28.7253 48.6309 28.4609C49.123 28.2057 49.5013 27.8275 49.7656 27.3262C50.0299 26.834 50.1621 26.237 50.1621 25.5352V14.625L50.5449 11.207ZM40.5918 18.7812V18.4941C40.5918 17.3639 40.7285 16.3385 41.002 15.418C41.2845 14.4883 41.681 13.6908 42.1914 13.0254C42.7109 12.36 43.3398 11.8451 44.0781 11.4805C44.8164 11.1159 45.6504 10.9336 46.5801 10.9336C47.5645 10.9336 48.3893 11.1159 49.0547 11.4805C49.7201 11.8451 50.2669 12.3646 50.6953 13.0391C51.1237 13.7044 51.4564 14.4928 51.6934 15.4043C51.9395 16.3066 52.1309 17.2956 52.2676 18.3711V19C52.1309 20.0299 51.9258 20.987 51.6523 21.8711C51.3789 22.7552 51.0189 23.5299 50.5723 24.1953C50.1257 24.8516 49.5697 25.362 48.9043 25.7266C48.248 26.0911 47.4642 26.2734 46.5527 26.2734C45.6413 26.2734 44.8164 26.0866 44.0781 25.7129C43.349 25.3392 42.7246 24.8151 42.2051 24.1406C41.6855 23.4661 41.2845 22.6732 41.002 21.7617C40.7285 20.8503 40.5918 19.8568 40.5918 18.7812ZM44.5293 18.4941V18.7812C44.5293 19.3919 44.5885 19.9616 44.707 20.4902C44.8255 21.0189 45.0078 21.4883 45.2539 21.8984C45.5091 22.2995 45.8236 22.6139 46.1973 22.8418C46.5801 23.0605 47.0312 23.1699 47.5508 23.1699C48.2708 23.1699 48.8587 23.0195 49.3145 22.7188C49.7702 22.4089 50.112 21.985 50.3398 21.4473C50.5677 20.9095 50.6999 20.2897 50.7363 19.5879V17.7969C50.7181 17.2227 50.6406 16.7077 50.5039 16.252C50.3672 15.7871 50.1758 15.3906 49.9297 15.0625C49.6836 14.7344 49.3646 14.4792 48.9727 14.2969C48.5807 14.1146 48.1159 14.0234 47.5781 14.0234C47.0586 14.0234 46.6074 14.1419 46.2246 14.3789C45.8509 14.6068 45.5365 14.9212 45.2812 15.3223C45.0352 15.7233 44.8483 16.1973 44.7207 16.7441C44.5931 17.2819 44.5293 17.8652 44.5293 18.4941ZM65.1602 22.6641V16.0742C65.1602 15.6003 65.0827 15.1947 64.9277 14.8574C64.7728 14.5111 64.5312 14.2422 64.2031 14.0508C63.8841 13.8594 63.4694 13.7637 62.959 13.7637C62.5215 13.7637 62.1432 13.8411 61.8242 13.9961C61.5052 14.1419 61.2591 14.3561 61.0859 14.6387C60.9128 14.9121 60.8262 15.2357 60.8262 15.6094H56.8887C56.8887 14.9805 57.0345 14.3835 57.3262 13.8184C57.6178 13.2533 58.0417 12.7565 58.5977 12.3281C59.1536 11.8906 59.8145 11.5488 60.5801 11.3027C61.3548 11.0566 62.2207 10.9336 63.1777 10.9336C64.3262 10.9336 65.347 11.125 66.2402 11.5078C67.1335 11.8906 67.8353 12.4648 68.3457 13.2305C68.8652 13.9961 69.125 14.9531 69.125 16.1016V22.4316C69.125 23.2428 69.1751 23.9082 69.2754 24.4277C69.3757 24.9382 69.5215 25.3848 69.7129 25.7676V26H65.7344C65.543 25.599 65.3971 25.0977 65.2969 24.4961C65.2057 23.8854 65.1602 23.2747 65.1602 22.6641ZM65.6797 16.9902L65.707 19.2188H63.5059C62.9863 19.2188 62.5352 19.278 62.1523 19.3965C61.7695 19.515 61.4551 19.6836 61.209 19.9023C60.9629 20.112 60.7806 20.3581 60.6621 20.6406C60.5527 20.9232 60.498 21.2331 60.498 21.5703C60.498 21.9076 60.5755 22.2129 60.7305 22.4863C60.8854 22.7507 61.1087 22.9603 61.4004 23.1152C61.6921 23.2611 62.0339 23.334 62.4258 23.334C63.0182 23.334 63.5332 23.2155 63.9707 22.9785C64.4082 22.7415 64.7454 22.4499 64.9824 22.1035C65.2285 21.7572 65.3561 21.429 65.3652 21.1191L66.4043 22.7871C66.2585 23.1608 66.0579 23.5482 65.8027 23.9492C65.5566 24.3503 65.2422 24.7285 64.8594 25.084C64.4766 25.4303 64.0163 25.7174 63.4785 25.9453C62.9408 26.1641 62.3027 26.2734 61.5645 26.2734C60.6257 26.2734 59.7734 26.0866 59.0078 25.7129C58.2513 25.3301 57.6497 24.806 57.2031 24.1406C56.7656 23.4661 56.5469 22.7005 56.5469 21.8438C56.5469 21.069 56.6927 20.3809 56.9844 19.7793C57.276 19.1777 57.7044 18.6719 58.2695 18.2617C58.8438 17.8424 59.5592 17.528 60.416 17.3184C61.2728 17.0996 62.2663 16.9902 63.3965 16.9902H65.6797Z" fill="#49A37B"/>
<path d="M73.2852 8.9375H78.7227C79.8086 8.9375 80.7734 9.12891 81.6172 9.51172C82.4609 9.88672 83.1211 10.4414 83.5977 11.1758C84.082 11.9023 84.3242 12.7969 84.3242 13.8594C84.3242 14.6875 84.1445 15.4375 83.7852 16.1094C83.4258 16.7734 82.9453 17.3203 82.3438 17.75C81.7422 18.1797 81.0703 18.4492 80.3281 18.5586L79.9648 18.6992H73.4375L73.4141 18.0664H79.2969C80.2734 18.0664 81.0859 17.8633 81.7344 17.457C82.3828 17.0508 82.8711 16.5273 83.1992 15.8867C83.5273 15.2383 83.6914 14.5625 83.6914 13.8594C83.6914 12.9609 83.4883 12.1953 83.082 11.5625C82.6758 10.9219 82.0977 10.4297 81.3477 10.0859C80.6055 9.74219 79.7305 9.57031 78.7227 9.57031H73.918V26H73.2852V8.9375ZM84.3711 26L79.6953 18.4766L80.4336 18.4531L85.0391 25.8359V26H84.3711ZM87.7578 19.9062V19.4141C87.7578 18.4844 87.8906 17.6328 88.1562 16.8594C88.4297 16.0859 88.8086 15.418 89.293 14.8555C89.7852 14.293 90.3711 13.8594 91.0508 13.5547C91.7305 13.2422 92.4805 13.0859 93.3008 13.0859C94.1289 13.0859 94.8828 13.2422 95.5625 13.5547C96.2422 13.8594 96.8281 14.293 97.3203 14.8555C97.8125 15.418 98.1914 16.0859 98.457 16.8594C98.7227 17.6328 98.8555 18.4844 98.8555 19.4141V19.9062C98.8555 20.8359 98.7227 21.6875 98.457 22.4609C98.1914 23.2344 97.8125 23.9023 97.3203 24.4648C96.8359 25.0273 96.2539 25.4648 95.5742 25.7773C94.8945 26.082 94.1445 26.2344 93.3242 26.2344C92.4961 26.2344 91.7422 26.082 91.0625 25.7773C90.3828 25.4648 89.7969 25.0273 89.3047 24.4648C88.8125 23.9023 88.4297 23.2344 88.1562 22.4609C87.8906 21.6875 87.7578 20.8359 87.7578 19.9062ZM88.3906 19.4141V19.9062C88.3906 20.6641 88.5 21.3867 88.7188 22.0742C88.9453 22.7539 89.2695 23.3594 89.6914 23.8906C90.1133 24.4219 90.6289 24.8398 91.2383 25.1445C91.8477 25.4492 92.543 25.6016 93.3242 25.6016C94.0977 25.6016 94.7852 25.4492 95.3867 25.1445C95.9961 24.8398 96.5117 24.4219 96.9336 23.8906C97.3555 23.3594 97.6758 22.7539 97.8945 22.0742C98.1133 21.3867 98.2227 20.6641 98.2227 19.9062V19.4141C98.2227 18.6719 98.1133 17.9609 97.8945 17.2812C97.6758 16.6016 97.3516 15.9961 96.9219 15.4648C96.5 14.9258 95.9844 14.5 95.375 14.1875C94.7656 13.875 94.0742 13.7188 93.3008 13.7188C92.5273 13.7188 91.8359 13.875 91.2266 14.1875C90.625 14.5 90.1094 14.9258 89.6797 15.4648C89.2578 15.9961 88.9375 16.6016 88.7188 17.2812C88.5 17.9609 88.3906 18.6719 88.3906 19.4141ZM106.238 25.6016C106.902 25.6016 107.531 25.4844 108.125 25.25C108.727 25.0078 109.227 24.6328 109.625 24.125C110.031 23.6172 110.258 22.9609 110.305 22.1562H110.938C110.898 23.0156 110.66 23.75 110.223 24.3594C109.785 24.9688 109.219 25.4336 108.523 25.7539C107.828 26.0742 107.066 26.2344 106.238 26.2344C105.418 26.2344 104.684 26.082 104.035 25.7773C103.395 25.4648 102.852 25.0273 102.406 24.4648C101.969 23.9023 101.633 23.2344 101.398 22.4609C101.172 21.6875 101.059 20.8359 101.059 19.9062V19.4141C101.059 18.4844 101.172 17.6328 101.398 16.8594C101.633 16.0859 101.969 15.418 102.406 14.8555C102.852 14.293 103.391 13.8594 104.023 13.5547C104.664 13.2422 105.395 13.0859 106.215 13.0859C107.035 13.0859 107.793 13.2539 108.488 13.5898C109.191 13.918 109.766 14.4102 110.211 15.0664C110.656 15.7227 110.898 16.5352 110.938 17.5039H110.305C110.266 16.6602 110.051 15.9609 109.66 15.4062C109.277 14.8438 108.781 14.4219 108.172 14.1406C107.562 13.8594 106.91 13.7188 106.215 13.7188C105.441 13.7188 104.77 13.8672 104.199 14.1641C103.629 14.4531 103.156 14.8594 102.781 15.3828C102.414 15.9062 102.141 16.5117 101.961 17.1992C101.781 17.8867 101.691 18.625 101.691 19.4141V19.9062C101.691 20.7031 101.781 21.4453 101.961 22.1328C102.141 22.8203 102.414 23.4258 102.781 23.9492C103.156 24.4648 103.629 24.8711 104.199 25.168C104.777 25.457 105.457 25.6016 106.238 25.6016ZM114.758 8V26H114.125V8H114.758ZM122.914 13.3203L116.598 19.168L114.641 20.8438L114.406 20.3867L116.246 18.6523L122.012 13.3203H122.914ZM122.457 26L116.398 18.875L116.809 18.3828L123.277 26H122.457ZM129.816 26.2344C129.043 26.2344 128.32 26.082 127.648 25.7773C126.977 25.4648 126.387 25.0273 125.879 24.4648C125.371 23.9023 124.973 23.2383 124.684 22.4727C124.402 21.6992 124.262 20.8516 124.262 19.9297V19.4141C124.262 18.4844 124.398 17.6367 124.672 16.8711C124.953 16.0977 125.336 15.4297 125.82 14.8672C126.312 14.2969 126.879 13.8594 127.52 13.5547C128.16 13.2422 128.848 13.0859 129.582 13.0859C130.285 13.0859 130.93 13.2188 131.516 13.4844C132.102 13.7422 132.609 14.1094 133.039 14.5859C133.477 15.0625 133.812 15.6328 134.047 16.2969C134.281 16.9609 134.398 17.6953 134.398 18.5V19.2383H124.672V18.6055H133.766V18.4531C133.766 17.6016 133.594 16.8203 133.25 16.1094C132.906 15.3906 132.422 14.8125 131.797 14.375C131.172 13.9375 130.434 13.7188 129.582 13.7188C128.879 13.7188 128.238 13.8672 127.66 14.1641C127.09 14.4609 126.598 14.8711 126.184 15.3945C125.77 15.9102 125.449 16.5117 125.223 17.1992C125.004 17.8867 124.895 18.625 124.895 19.4141V19.9297C124.895 20.7188 125.02 21.457 125.27 22.1445C125.52 22.832 125.867 23.4375 126.312 23.9609C126.758 24.4766 127.277 24.8828 127.871 25.1797C128.473 25.4688 129.121 25.6133 129.816 25.6133C130.543 25.6133 131.219 25.4922 131.844 25.25C132.477 25.0078 133.055 24.5469 133.578 23.8672L134.023 24.1836C133.742 24.582 133.402 24.9375 133.004 25.25C132.613 25.5547 132.152 25.7969 131.621 25.9766C131.098 26.1484 130.496 26.2344 129.816 26.2344ZM141.652 13.3203V13.9648H135.781V13.3203H141.652ZM138.125 9.89844H138.77V22.9648C138.77 23.707 138.855 24.2695 139.027 24.6523C139.207 25.0273 139.441 25.2812 139.73 25.4141C140.027 25.5391 140.344 25.6016 140.68 25.6016C140.922 25.6016 141.137 25.5938 141.324 25.5781C141.512 25.5547 141.715 25.5273 141.934 25.4961L142.039 26.0938C141.867 26.1484 141.645 26.1836 141.371 26.1992C141.098 26.2227 140.879 26.2344 140.715 26.2344C140.176 26.2344 139.711 26.1406 139.32 25.9531C138.938 25.7578 138.641 25.4219 138.43 24.9453C138.227 24.4688 138.125 23.8086 138.125 22.9648V9.89844Z" fill="#AACE9B"/>
</svg>
