<svg width="19" height="18" viewBox="0 0 19 18" fill="none" xmlns="http://www.w3.org/2000/svg">
<path d="M0 1.25086L0 3.23453C0 3.49758 0.125111 3.74986 0.347811 3.93586C0.57051 4.12187 0.872555 4.22636 1.1875 4.22636C1.50244 4.22636 1.80449 4.12187 2.02719 3.93586C2.24989 3.74986 2.375 3.49758 2.375 3.23453V2.24269L16.625 2.24269V3.23453C16.625 3.49758 16.7501 3.74986 16.9728 3.93586C17.1955 4.12187 17.4976 4.22636 17.8125 4.22636C18.1274 4.22636 18.4295 4.12187 18.6522 3.93586C18.8749 3.74986 19 3.49758 19 3.23453V1.25086C19 0.987806 18.8749 0.735529 18.6522 0.549522C18.4295 0.363518 18.1274 0.259022 17.8125 0.259022H1.1875C0.872555 0.259022 0.57051 0.363518 0.347811 0.549522C0.125111 0.735529 0 0.987806 0 1.25086ZM4.0375 8.39207C3.78554 8.5499 3.61897 8.78487 3.57443 9.04527C3.52989 9.30568 3.61103 9.5702 3.8 9.78064C3.98897 9.99108 4.27028 10.1302 4.58206 10.1674C4.89384 10.2046 5.21054 10.1368 5.4625 9.97901L8.3125 8.19371V16.1284C8.3125 16.3914 8.43761 16.6437 8.66031 16.8297C8.88301 17.0157 9.18506 17.1202 9.5 17.1202C9.81494 17.1202 10.117 17.0157 10.3397 16.8297C10.5624 16.6437 10.6875 16.3914 10.6875 16.1284V8.10444L13.585 9.8104C13.7126 9.88651 13.8571 9.94074 14.0099 9.96998C14.1628 9.99922 14.3211 10.0029 14.4756 9.98075C14.6302 9.95862 14.778 9.91113 14.9105 9.84104C15.043 9.77094 15.1575 9.67963 15.2475 9.57236C15.3884 9.40375 15.4631 9.20272 15.4613 8.99709C15.4604 8.83974 15.4147 8.68481 15.328 8.54512C15.2412 8.40543 15.116 8.28497 14.9625 8.19371L10.2125 5.39673C10.0091 5.2726 9.76376 5.2057 9.51188 5.2057C9.25999 5.2057 9.01462 5.2726 8.81125 5.39673L4.0375 8.39207Z" fill="white"/>
</svg>
