<svg width="18" height="19" viewBox="0 0 18 19" fill="none" xmlns="http://www.w3.org/2000/svg">
<path d="M0 1.38914L0 3.50679C0 3.78761 0.118527 4.05693 0.329505 4.2555C0.540484 4.45406 0.826631 4.56562 1.125 4.56562C1.42337 4.56562 1.70952 4.45406 1.92049 4.2555C2.13147 4.05693 2.25 3.78761 2.25 3.50679V2.44797H15.75V3.50679C15.75 3.78761 15.8685 4.05693 16.0795 4.2555C16.2905 4.45406 16.5766 4.56562 16.875 4.56562C17.1734 4.56562 17.4595 4.45406 17.6705 4.2555C17.8815 4.05693 18 3.78761 18 3.50679V1.38914C18 1.10833 17.8815 0.839012 17.6705 0.640444C17.4595 0.441875 17.1734 0.330322 16.875 0.330322H1.125C0.826631 0.330322 0.540484 0.441875 0.329505 0.640444C0.118527 0.839012 0 1.10833 0 1.38914ZM3.825 9.01267C3.58631 9.18116 3.4285 9.432 3.38631 9.70999C3.34411 9.98799 3.42098 10.2704 3.6 10.495C3.77902 10.7197 4.04553 10.8682 4.3409 10.9079C4.63627 10.9476 4.93631 10.8753 5.175 10.7068L7.875 8.80091L7.875 17.2715C7.875 17.5523 7.99353 17.8216 8.2045 18.0202C8.41548 18.2188 8.70163 18.3303 9 18.3303C9.29837 18.3303 9.58452 18.2188 9.7955 18.0202C10.0065 17.8216 10.125 17.5523 10.125 17.2715V8.70562L12.87 10.5268C12.9909 10.608 13.1277 10.6659 13.2726 10.6972C13.4174 10.7284 13.5673 10.7323 13.7138 10.7087C13.8602 10.685 14.0002 10.6343 14.1257 10.5595C14.2512 10.4847 14.3597 10.3872 14.445 10.2727C14.5785 10.0927 14.6493 9.87807 14.6475 9.65856C14.6467 9.49057 14.6034 9.32519 14.5212 9.17606C14.4391 9.02693 14.3204 8.89834 14.175 8.80091L9.675 5.81503C9.48233 5.68252 9.24988 5.6111 9.01125 5.6111C8.77262 5.6111 8.54017 5.68252 8.3475 5.81503L3.825 9.01267Z" fill="#373867"/>
</svg>
