<svg width="18" height="19" viewBox="0 0 18 19" fill="none" xmlns="http://www.w3.org/2000/svg">
<path d="M17.0001 5.6697L11.0001 0.941356C10.4501 0.499126 9.73803 0.254639 9.00009 0.254639C8.26216 0.254639 7.55012 0.499126 7.00009 0.941356L1.00009 5.6697C0.682463 5.92506 0.428995 6.23832 0.256567 6.58862C0.0841385 6.93892 -0.00329256 7.31822 9.47941e-05 7.70127V15.5579C9.47941e-05 16.2731 0.316165 16.959 0.878775 17.4648C1.44138 17.9705 2.20445 18.2546 3.00009 18.2546H15.0001C15.7957 18.2546 16.5588 17.9705 17.1214 17.4648C17.684 16.959 18.0001 16.2731 18.0001 15.5579V7.69228C18.0021 7.31074 17.9139 6.93317 17.7416 6.58452C17.5692 6.23586 17.3165 5.92405 17.0001 5.6697ZM11.0001 16.4568H7.00009V11.9622C7.00009 11.7238 7.10545 11.4951 7.29299 11.3265C7.48052 11.158 7.73488 11.0632 8.00009 11.0632H10.0001C10.2653 11.0632 10.5197 11.158 10.7072 11.3265C10.8947 11.4951 11.0001 11.7238 11.0001 11.9622V16.4568ZM16.0001 15.5579C16.0001 15.7963 15.8947 16.0249 15.7072 16.1935C15.5197 16.3621 15.2653 16.4568 15.0001 16.4568H13.0001V11.9622C13.0001 11.2469 12.684 10.561 12.1214 10.0553C11.5588 9.54952 10.7957 9.2654 10.0001 9.2654H8.00009C7.20444 9.2654 6.44138 9.54952 5.87877 10.0553C5.31616 10.561 5.00009 11.2469 5.00009 11.9622V16.4568H3.00009C2.73488 16.4568 2.48052 16.3621 2.29299 16.1935C2.10545 16.0249 2.00009 15.7963 2.00009 15.5579V7.69228C2.00027 7.56464 2.03069 7.43851 2.08931 7.32226C2.14794 7.20601 2.23343 7.10232 2.3401 7.01808L8.34009 2.29873C8.52258 2.15462 8.75719 2.07514 9.00009 2.07514C9.243 2.07514 9.47761 2.15462 9.66009 2.29873L15.6601 7.01808C15.7668 7.10232 15.8523 7.20601 15.9109 7.32226C15.9695 7.43851 15.9999 7.56464 16.0001 7.69228V15.5579Z" fill="#373867"/>
</svg>
