<svg width="25" height="24" viewBox="0 0 25 24" fill="none" xmlns="http://www.w3.org/2000/svg">
<path d="M7.63978 8.67372C9.14611 12.783 10.7056 14.4226 14.6728 16.1689L12.9535 18.5835C8.39789 16.4025 6.12884 12.726 5.06019 9.85689L7.63978 8.67372Z" fill="#373867"/>
<path d="M8.9037 3.00042C9.70918 2.99727 10.3216 3.6675 10.2667 4.42643C10.1803 5.62074 10.2723 6.48241 10.52 7.55049C10.6561 8.13719 10.3482 8.73307 9.85908 9.11687C9.19975 9.63418 8.69604 10.2933 8.29569 10.8608C7.74081 11.6473 5.83122 11.5908 5.40891 10.734C4.54101 8.9731 3.95284 5.729 5.22022 3.53723C5.4193 3.19295 5.82014 3.01247 6.23549 3.01085L8.9037 3.00042Z" fill="#373867"/>
<path d="M21.1302 16.0307C21.2304 15.2759 20.5995 14.6211 19.7952 14.5813C18.5293 14.5187 17.6346 14.3288 16.5417 13.9682C15.9413 13.77 15.2779 13.987 14.8156 14.3994C14.1926 14.9554 13.4391 15.3484 12.7945 15.6555C11.901 16.0811 11.7308 17.8783 12.5806 18.3772C14.3272 19.4027 17.6666 20.3443 20.123 19.4196C20.5088 19.2744 20.7467 18.9203 20.7984 18.5311L21.1302 16.0307Z" fill="#373867"/>
</svg>
