<svg width="86" height="33" viewBox="0 0 86 33" fill="none" xmlns="http://www.w3.org/2000/svg">
<path d="M2.56299 0.117188H6.90381L13.2954 18.3862L19.687 0.117188H24.0278L15.0386 25H11.5522L2.56299 0.117188ZM0.22168 0.117188H4.54541L5.33154 17.9248V25H0.22168V0.117188ZM22.0454 0.117188H26.3862V25H21.2593V17.9248L22.0454 0.117188ZM39.084 25.3418C37.6484 25.3418 36.361 25.1139 35.2217 24.6582C34.0824 24.1911 33.1139 23.5474 32.3164 22.7271C31.5303 21.9067 30.9264 20.9554 30.5049 19.873C30.0833 18.7793 29.8726 17.6172 29.8726 16.3867V15.7031C29.8726 14.3018 30.0719 13.02 30.4707 11.8579C30.8695 10.6958 31.4391 9.6875 32.1797 8.83301C32.9316 7.97852 33.8431 7.3234 34.9141 6.86768C35.985 6.40055 37.1927 6.16699 38.5371 6.16699C39.8473 6.16699 41.0094 6.38346 42.0234 6.81641C43.0374 7.24935 43.8862 7.86458 44.5698 8.66211C45.2648 9.45964 45.7889 10.4167 46.1421 11.5332C46.4953 12.6383 46.6719 13.8688 46.6719 15.2246V17.2754H31.9746V13.9941H41.8354V13.6182C41.8354 12.9346 41.7101 12.325 41.4595 11.7896C41.2202 11.2427 40.8556 10.8097 40.3657 10.4907C39.8758 10.1717 39.2492 10.0122 38.4858 10.0122C37.8364 10.0122 37.2782 10.1546 36.811 10.4395C36.3439 10.7243 35.9622 11.123 35.666 11.6357C35.3812 12.1484 35.1647 12.7523 35.0166 13.4473C34.8799 14.1309 34.8115 14.8828 34.8115 15.7031V16.3867C34.8115 17.1273 34.9141 17.8109 35.1191 18.4375C35.3356 19.0641 35.6375 19.6053 36.0249 20.061C36.4237 20.5168 36.9022 20.87 37.4604 21.1206C38.0301 21.3713 38.6738 21.4966 39.3916 21.4966C40.2803 21.4966 41.1063 21.3257 41.8696 20.9839C42.6444 20.6307 43.3109 20.1009 43.8691 19.3945L46.2617 21.9922C45.8743 22.5505 45.3446 23.0859 44.6724 23.5986C44.0116 24.1113 43.214 24.5329 42.2798 24.8633C41.3455 25.1823 40.2803 25.3418 39.084 25.3418ZM61.1812 6.50879H65.6416V24.3848C65.6416 26.071 65.2656 27.5008 64.5137 28.6743C63.7731 29.8592 62.7363 30.7536 61.4033 31.3574C60.0703 31.9727 58.5208 32.2803 56.7549 32.2803C55.9801 32.2803 55.1598 32.1777 54.2939 31.9727C53.4395 31.7676 52.6191 31.4486 51.833 31.0156C51.0583 30.5827 50.4089 30.0358 49.8848 29.375L52.0552 26.4697C52.6248 27.1305 53.2856 27.6432 54.0376 28.0078C54.7896 28.3838 55.6213 28.5718 56.5327 28.5718C57.4214 28.5718 58.1733 28.4066 58.7886 28.0762C59.4038 27.7572 59.8766 27.2843 60.207 26.6577C60.5374 26.0425 60.7026 25.2962 60.7026 24.4189V10.7812L61.1812 6.50879ZM48.7397 15.9766V15.6177C48.7397 14.2049 48.9106 12.9232 49.2524 11.7725C49.6056 10.6104 50.1012 9.61344 50.7393 8.78174C51.3887 7.95003 52.1748 7.30632 53.0977 6.85059C54.0205 6.39486 55.063 6.16699 56.2251 6.16699C57.4556 6.16699 58.4867 6.39486 59.3184 6.85059C60.1501 7.30632 60.8337 7.95573 61.3691 8.79883C61.9046 9.63053 62.3205 10.616 62.6167 11.7554C62.9243 12.8833 63.1636 14.1195 63.3345 15.4639V16.25C63.1636 17.5374 62.9072 18.7337 62.5654 19.8389C62.2236 20.944 61.7736 21.9124 61.2153 22.7441C60.6571 23.5645 59.9621 24.2025 59.1304 24.6582C58.3101 25.1139 57.3302 25.3418 56.1909 25.3418C55.0516 25.3418 54.0205 25.1082 53.0977 24.6411C52.1862 24.174 51.4058 23.5189 50.7563 22.6758C50.1069 21.8327 49.6056 20.8415 49.2524 19.7021C48.9106 18.5628 48.7397 17.321 48.7397 15.9766ZM53.6616 15.6177V15.9766C53.6616 16.7399 53.7357 17.452 53.8838 18.1128C54.0319 18.7736 54.2598 19.3604 54.5674 19.873C54.8864 20.3743 55.2795 20.7674 55.7466 21.0522C56.2251 21.3257 56.7891 21.4624 57.4385 21.4624C58.3385 21.4624 59.0734 21.2744 59.6431 20.8984C60.2127 20.5111 60.64 19.9813 60.9248 19.3091C61.2096 18.6369 61.3748 17.8621 61.4204 16.9849V14.7461C61.3976 14.0283 61.3008 13.3846 61.1299 12.8149C60.959 12.2339 60.7197 11.7383 60.4121 11.3281C60.1045 10.918 59.7057 10.599 59.2158 10.3711C58.7259 10.1432 58.1449 10.0293 57.4727 10.0293C56.8232 10.0293 56.2593 10.1774 55.7808 10.4736C55.3136 10.7585 54.9206 11.1515 54.6016 11.6528C54.2939 12.1541 54.0604 12.7466 53.9009 13.4302C53.7414 14.1024 53.6616 14.8315 53.6616 15.6177ZM79.4502 20.8301V12.5928C79.4502 12.0003 79.3534 11.4933 79.1597 11.0718C78.966 10.6388 78.6641 10.3027 78.2539 10.0635C77.8551 9.82422 77.3368 9.70459 76.6987 9.70459C76.1519 9.70459 75.679 9.80143 75.2803 9.99512C74.8815 10.1774 74.5739 10.4451 74.3574 10.7983C74.141 11.1401 74.0327 11.5446 74.0327 12.0117H69.1108C69.1108 11.2256 69.2931 10.4793 69.6577 9.77295C70.0223 9.06657 70.5521 8.44564 71.2471 7.91016C71.9421 7.36328 72.7681 6.93604 73.7251 6.62842C74.6935 6.3208 75.7759 6.16699 76.9722 6.16699C78.4077 6.16699 79.6838 6.40625 80.8003 6.88477C81.9168 7.36328 82.7941 8.08105 83.4321 9.03809C84.0815 9.99512 84.4062 11.1914 84.4062 12.627V20.5396C84.4062 21.5535 84.4689 22.3853 84.5942 23.0347C84.7196 23.6727 84.9019 24.231 85.1411 24.7095V25H80.168C79.9287 24.4987 79.7464 23.8721 79.6211 23.1201C79.5072 22.3568 79.4502 21.5934 79.4502 20.8301ZM80.0996 13.7378L80.1338 16.5234H77.3823C76.7329 16.5234 76.1689 16.5975 75.6904 16.7456C75.2119 16.8937 74.8188 17.1045 74.5112 17.3779C74.2036 17.64 73.9757 17.9476 73.8276 18.3008C73.6909 18.654 73.6226 19.0413 73.6226 19.4629C73.6226 19.8844 73.7194 20.2661 73.9131 20.6079C74.1068 20.9383 74.3859 21.2004 74.7505 21.394C75.1151 21.5763 75.5423 21.6675 76.0322 21.6675C76.7728 21.6675 77.4165 21.5194 77.9634 21.2231C78.5103 20.9269 78.9318 20.5623 79.228 20.1294C79.5356 19.6965 79.6951 19.2863 79.7065 18.8989L81.0054 20.9839C80.8231 21.451 80.5724 21.9352 80.2534 22.4365C79.9458 22.9378 79.5527 23.4106 79.0742 23.855C78.5957 24.2879 78.0203 24.6468 77.3481 24.9316C76.6759 25.2051 75.8784 25.3418 74.9556 25.3418C73.7821 25.3418 72.7168 25.1082 71.7598 24.6411C70.8141 24.1626 70.0622 23.5075 69.5039 22.6758C68.957 21.8327 68.6836 20.8757 68.6836 19.8047C68.6836 18.8363 68.8659 17.9761 69.2305 17.2241C69.5951 16.4722 70.1305 15.8398 70.8369 15.3271C71.5547 14.8031 72.4491 14.41 73.52 14.1479C74.591 13.8745 75.8328 13.7378 77.2456 13.7378H80.0996Z" fill="#49A37B"/>
</svg>
