<svg width="101" height="28" viewBox="0 0 101 28" fill="none" xmlns="http://www.w3.org/2000/svg">
<path d="M0.33252 2.11719H8.26221C9.84587 2.11719 11.2529 2.39632 12.4834 2.95459C13.7139 3.50146 14.6766 4.31038 15.3716 5.38135C16.078 6.44092 16.4312 7.74544 16.4312 9.29492C16.4312 10.5026 16.1691 11.5964 15.645 12.5762C15.1209 13.5446 14.4202 14.3421 13.543 14.9688C12.6657 15.5954 11.6859 15.9884 10.6035 16.1479L10.0737 16.353H0.554688L0.520508 15.4302H9.09961C10.5238 15.4302 11.7087 15.134 12.6543 14.5415C13.5999 13.9491 14.312 13.1857 14.7905 12.2515C15.269 11.3058 15.5083 10.3203 15.5083 9.29492C15.5083 7.9847 15.2121 6.86816 14.6196 5.94531C14.0272 5.01107 13.1841 4.29329 12.0903 3.79199C11.008 3.29069 9.73193 3.04004 8.26221 3.04004H1.25537V27H0.33252V2.11719ZM16.4995 27L9.68066 16.0283L10.7573 15.9941L17.4736 26.7607V27H16.4995ZM21.4385 18.1133V17.3955C21.4385 16.0397 21.6322 14.7979 22.0195 13.6699C22.4183 12.542 22.9709 11.5679 23.6772 10.7476C24.395 9.92725 25.2495 9.29492 26.2407 8.85059C27.2319 8.39486 28.3257 8.16699 29.522 8.16699C30.7297 8.16699 31.8291 8.39486 32.8203 8.85059C33.8115 9.29492 34.666 9.92725 35.3838 10.7476C36.1016 11.5679 36.6541 12.542 37.0415 13.6699C37.4289 14.7979 37.6226 16.0397 37.6226 17.3955V18.1133C37.6226 19.4691 37.4289 20.7109 37.0415 21.8389C36.6541 22.9668 36.1016 23.9409 35.3838 24.7612C34.6774 25.5815 33.8286 26.2196 32.8374 26.6753C31.8462 27.1196 30.7524 27.3418 29.5562 27.3418C28.3485 27.3418 27.249 27.1196 26.2578 26.6753C25.2666 26.2196 24.4121 25.5815 23.6943 24.7612C22.9766 23.9409 22.4183 22.9668 22.0195 21.8389C21.6322 20.7109 21.4385 19.4691 21.4385 18.1133ZM22.3613 17.3955V18.1133C22.3613 19.2184 22.5208 20.2723 22.8398 21.2749C23.1702 22.2661 23.6431 23.1491 24.2583 23.9238C24.8735 24.6986 25.6255 25.3081 26.5142 25.7524C27.4028 26.1968 28.4168 26.4189 29.5562 26.4189C30.6841 26.4189 31.6867 26.1968 32.564 25.7524C33.4526 25.3081 34.2046 24.6986 34.8198 23.9238C35.4351 23.1491 35.9022 22.2661 36.2212 21.2749C36.5402 20.2723 36.6997 19.2184 36.6997 18.1133V17.3955C36.6997 16.3132 36.5402 15.2764 36.2212 14.2852C35.9022 13.2939 35.4294 12.411 34.8027 11.6362C34.1875 10.8501 33.4355 10.2292 32.5469 9.77344C31.6582 9.31771 30.6499 9.08984 29.522 9.08984C28.394 9.08984 27.3857 9.31771 26.4971 9.77344C25.6198 10.2292 24.8678 10.8501 24.2412 11.6362C23.626 12.411 23.1589 13.2939 22.8398 14.2852C22.5208 15.2764 22.3613 16.3132 22.3613 17.3955ZM48.3892 26.4189C49.3576 26.4189 50.2747 26.248 51.1406 25.9062C52.0179 25.5531 52.7471 25.0062 53.3281 24.2656C53.9206 23.5251 54.251 22.568 54.3193 21.3945H55.2422C55.1852 22.6478 54.8377 23.7188 54.1997 24.6074C53.5617 25.4961 52.7357 26.174 51.7217 26.6411C50.7077 27.1082 49.5968 27.3418 48.3892 27.3418C47.1929 27.3418 46.1219 27.1196 45.1763 26.6753C44.242 26.2196 43.4502 25.5815 42.8008 24.7612C42.1628 23.9409 41.6729 22.9668 41.3311 21.8389C41.0007 20.7109 40.8354 19.4691 40.8354 18.1133V17.3955C40.8354 16.0397 41.0007 14.7979 41.3311 13.6699C41.6729 12.542 42.1628 11.5679 42.8008 10.7476C43.4502 9.92725 44.2363 9.29492 45.1592 8.85059C46.0934 8.39486 47.1587 8.16699 48.355 8.16699C49.5513 8.16699 50.6564 8.41195 51.6704 8.90186C52.6958 9.38037 53.5332 10.0981 54.1826 11.0552C54.832 12.0122 55.1852 13.1971 55.2422 14.6099H54.3193C54.2624 13.3794 53.9491 12.3597 53.3794 11.5508C52.8211 10.7305 52.0977 10.1152 51.209 9.70508C50.3203 9.29492 49.369 9.08984 48.355 9.08984C47.2271 9.08984 46.2472 9.30632 45.4155 9.73926C44.5838 10.1608 43.8945 10.7533 43.3477 11.5166C42.8122 12.2799 42.4134 13.1629 42.1514 14.1655C41.8893 15.1681 41.7583 16.2448 41.7583 17.3955V18.1133C41.7583 19.2754 41.8893 20.3577 42.1514 21.3604C42.4134 22.363 42.8122 23.2459 43.3477 24.0093C43.8945 24.7612 44.5838 25.3537 45.4155 25.7866C46.2586 26.2082 47.2498 26.4189 48.3892 26.4189ZM60.8135 0.75V27H59.8906V0.75H60.8135ZM72.708 8.50879L63.4966 17.0366L60.6426 19.4805L60.3008 18.814L62.9839 16.2847L71.3921 8.50879H72.708ZM72.0415 27L63.2061 16.6094L63.8042 15.8916L73.2378 27H72.0415ZM82.7739 27.3418C81.646 27.3418 80.5921 27.1196 79.6123 26.6753C78.6325 26.2196 77.7723 25.5815 77.0317 24.7612C76.2912 23.9409 75.7101 22.9725 75.2886 21.856C74.8784 20.728 74.6733 19.4919 74.6733 18.1475V17.3955C74.6733 16.0397 74.8727 14.8035 75.2715 13.687C75.6816 12.5591 76.2399 11.585 76.9463 10.7646C77.6641 9.93294 78.4901 9.29492 79.4243 8.85059C80.3586 8.39486 81.3612 8.16699 82.4321 8.16699C83.4575 8.16699 84.3975 8.36068 85.252 8.74805C86.1064 9.12402 86.847 9.65951 87.4736 10.3545C88.1117 11.0495 88.6016 11.8812 88.9434 12.8496C89.2852 13.818 89.4561 14.889 89.4561 16.0625V17.1392H75.2715V16.2163H88.5332V15.9941C88.5332 14.7523 88.2826 13.613 87.7812 12.5762C87.2799 11.528 86.5736 10.6849 85.6621 10.0469C84.7507 9.40885 83.674 9.08984 82.4321 9.08984C81.4067 9.08984 80.4725 9.30632 79.6294 9.73926C78.7977 10.1722 78.0799 10.7703 77.4761 11.5337C76.8722 12.2856 76.4051 13.1629 76.0747 14.1655C75.7557 15.1681 75.5962 16.2448 75.5962 17.3955V18.1475C75.5962 19.2982 75.7785 20.3748 76.1431 21.3774C76.5076 22.38 77.0146 23.263 77.6641 24.0264C78.3135 24.7783 79.0711 25.3708 79.937 25.8037C80.8143 26.2253 81.7599 26.436 82.7739 26.436C83.8335 26.436 84.819 26.2594 85.7305 25.9062C86.6533 25.5531 87.4964 24.8809 88.2598 23.8896L88.9092 24.3511C88.499 24.9321 88.0034 25.4505 87.4224 25.9062C86.8527 26.3506 86.1805 26.7038 85.4058 26.9658C84.6424 27.2165 83.7651 27.3418 82.7739 27.3418ZM100.035 8.50879V9.44873H91.4727V8.50879H100.035ZM94.8906 3.51855H95.8306V22.5737C95.8306 23.6561 95.9559 24.4764 96.2065 25.0347C96.4686 25.5815 96.8104 25.9518 97.2319 26.1455C97.6649 26.3278 98.1263 26.4189 98.6162 26.4189C98.9694 26.4189 99.2827 26.4076 99.5562 26.3848C99.8296 26.3506 100.126 26.3107 100.445 26.2651L100.599 27.1367C100.348 27.2165 100.023 27.2677 99.6245 27.2905C99.2257 27.3247 98.9067 27.3418 98.6675 27.3418C97.8813 27.3418 97.2035 27.2051 96.6338 26.9316C96.0755 26.6468 95.6426 26.1569 95.335 25.4619C95.0387 24.7669 94.8906 23.8042 94.8906 22.5737V3.51855Z" fill="#AACE9B"/>
</svg>
